<svg width="26" height="26" viewBox="0 0 26 26" fill="none" xmlns="http://www.w3.org/2000/svg">
<g opacity="0.4">
<path d="M13 9.75V15.1667" stroke="#77B3C0" stroke-width="2" stroke-linecap="round" stroke-linejoin="round"/>
<path d="M13 23.8333C7.76754 23.8333 3.52087 19.5867 3.52087 14.3542C3.52087 9.12167 7.76754 4.875 13 4.875C18.2325 4.875 22.4792 9.12167 22.4792 14.3542" stroke="#77B3C0" stroke-width="2" stroke-linecap="round" stroke-linejoin="round"/>
<path d="M9.75 2.16669H16.25" stroke="#77B3C0" stroke-width="2" stroke-miterlimit="10" stroke-linecap="round" stroke-linejoin="round"/>
<path d="M16.1417 20.0417V18.785C16.1417 17.2358 17.2467 16.5967 18.5901 17.3767L19.6734 18.005L20.7567 18.6333C22.1001 19.4133 22.1001 20.6808 20.7567 21.4608L19.6734 22.0892L18.5901 22.7175C17.2467 23.4975 16.1417 22.8583 16.1417 21.3092V20.0417Z" stroke="#77B3C0" stroke-width="2" stroke-miterlimit="10" stroke-linecap="round" stroke-linejoin="round"/>
</g>
<g opacity="0.4">
<path d="M13 9.75V15.1667" stroke="#77B3C0" stroke-width="2" stroke-linecap="round" stroke-linejoin="round"/>
<path d="M13 23.8333C7.76754 23.8333 3.52087 19.5867 3.52087 14.3542C3.52087 9.12167 7.76754 4.875 13 4.875C18.2325 4.875 22.4792 9.12167 22.4792 14.3542" stroke="#77B3C0" stroke-width="2" stroke-linecap="round" stroke-linejoin="round"/>
<path d="M9.75 2.16669H16.25" stroke="#77B3C0" stroke-width="2" stroke-miterlimit="10" stroke-linecap="round" stroke-linejoin="round"/>
<path d="M16.1417 20.0417V18.785C16.1417 17.2358 17.2467 16.5967 18.5901 17.3767L19.6734 18.005L20.7567 18.6333C22.1001 19.4133 22.1001 20.6808 20.7567 21.4608L19.6734 22.0892L18.5901 22.7175C17.2467 23.4975 16.1417 22.8583 16.1417 21.3092V20.0417Z" stroke="#77B3C0" stroke-width="2" stroke-miterlimit="10" stroke-linecap="round" stroke-linejoin="round"/>
</g>
</svg>
