<svg width="12" height="15" viewBox="0 0 12 15" fill="none" xmlns="http://www.w3.org/2000/svg">
<path d="M6.75 10.5C6.75 10.9142 6.41421 11.25 6 11.25C5.58579 11.25 5.25 10.9142 5.25 10.5C5.25 10.0858 5.58579 9.75 6 9.75C6.41421 9.75 6.75 10.0858 6.75 10.5Z" fill="#FF6464"/>
<path fill-rule="evenodd" clip-rule="evenodd" d="M2.25 3.75V6H1.5C0.698736 6 0 6.58228 0 7.375V13.625C0 14.4177 0.698736 15 1.5 15H10.5C11.3013 15 12 14.4177 12 13.625V7.375C12 6.58228 11.3013 6 10.5 6H9.75V3.75C9.75 1.67893 8.07107 0 6 0C3.92893 0 2.25 1.67893 2.25 3.75ZM8.25 3.75V6H3.75V3.75C3.75 2.50736 4.75736 1.5 6 1.5C7.24264 1.5 8.25 2.50736 8.25 3.75ZM1.5 13.5V7.5H10.5V13.5H1.5Z" fill="#FF6464"/>
</svg>
